<svg width="1100" height="973" viewBox="0 0 1100 973" xmlns:xlink="http://www.w3.org/1999/xlink" xmlns="http://www.w3.org/2000/svg" xmlns:ev="http://www.w3.org/2001/xml-events"><defs/><g id="page1" transform="translate(5.5,5.5)"><rect width="1090" height="963" fill="#ffffff" y="0" x="0"/><g id="group1" transform="translate(56.602460,410.322835)"><path id="shape2" fill="#ffffff" stroke-width="1" stroke="#000000" d="M.1,14.2C.1,6.4,6.6,.0,14.7,.0C22.8,.0,29.4,6.4,29.4,14.2C29.4,22.1,22.8,28.4,14.7,28.4C6.6,28.4,.1,22.1,.1,14.2z" transform="translate(14.562157,-0.924440)" fill-rule="nonzero"/><path id="shape3" fill="none" stroke-width="1" stroke="#000000" d="M.1,.0L60.6,.0" transform="translate(0.000000,41.674930)"/><path id="shape4" fill="none" stroke-width="1" stroke="#000000" d="M27.3,-0.9L27.3,73.9L.1,128.8" transform="translate(1.950750,28.414700)"/><path id="shape5" fill="none" stroke-width="1" stroke="#000000" d="M.5,.0C-3.5,.0,27.8,54.9,27.8,54.9" transform="translate(30.845329,102.293077)"/></g><g id="shape6" transform="translate(487.468508,140.913386)"><path fill="#ffffff" stroke-width="1" stroke="#4155c6" d="M27.0,54.0L165.8,54.0L165.8,54.0C180.7,54.0,192.8,41.9,192.8,27.0C192.8,12.1,180.7,.0,165.8,.0L27.0,.0L27.0,.0C12.1,.0,.0,12.1,.0,27.0C.0,41.9,12.1,54.0,27.0,54.0z" fill-rule="nonzero"/><text xml:space="preserve" style="fill:#454545;font-family:Arial,PingFang SC,Mircrosoft YaHei,Arial;font-size:12.00pt"><tspan y="33.5" x="45.4">create account</tspan></text></g><g id="shape7" transform="translate(487.468508,207.763780)"><path fill="#ffffff" stroke-width="1" stroke="#4155c6" d="M27.0,54.0L165.8,54.0L165.8,54.0C180.7,54.0,192.8,41.9,192.8,27.0C192.8,12.1,180.7,.0,165.8,.0L27.0,.0L27.0,.0C12.1,.0,.0,12.1,.0,27.0C.0,41.9,12.1,54.0,27.0,54.0z" fill-rule="nonzero"/><text xml:space="preserve" style="fill:#454545;font-family:Arial,PingFang SC,Mircrosoft YaHei,Arial;font-size:12.00pt"><tspan y="33.5" x="79.9">login</tspan></text></g><g id="shape8" transform="translate(487.468508,428.346457)"><path fill="#ffffff" stroke-width="1" stroke="#4155c6" d="M27.0,54.0L165.8,54.0L165.8,54.0C180.7,54.0,192.8,41.9,192.8,27.0C192.8,12.1,180.7,.0,165.8,.0L27.0,.0L27.0,.0C12.1,.0,.0,12.1,.0,27.0C.0,41.9,12.1,54.0,27.0,54.0z" fill-rule="nonzero"/><text xml:space="preserve" style="fill:#454545;font-family:Arial,PingFang SC,Mircrosoft YaHei,Arial;font-size:12.00pt"><tspan y="33.5" x="25.9">view item availability</tspan></text></g><g id="shape9" transform="translate(487.468508,575.748031)"><path fill="#ffffff" stroke-width="1" stroke="#4155c6" d="M27.0,54.0L165.8,54.0L165.8,54.0C180.7,54.0,192.8,41.9,192.8,27.0C192.8,12.1,180.7,.0,165.8,.0L27.0,.0L27.0,.0C12.1,.0,.0,12.1,.0,27.0C.0,41.9,12.1,54.0,27.0,54.0z" fill-rule="nonzero"/><text xml:space="preserve" style="fill:#454545;font-family:Arial,PingFang SC,Mircrosoft YaHei,Arial;font-size:12.00pt"><tspan y="33.5" x="38.9">update item sold</tspan></text></g><g id="shape10" transform="translate(487.468508,649.448819)"><path fill="#ffffff" stroke-width="1" stroke="#4155c6" d="M27.0,54.0L165.8,54.0L165.8,54.0C180.7,54.0,192.8,41.9,192.8,27.0C192.8,12.1,180.7,.0,165.8,.0L27.0,.0L27.0,.0C12.1,.0,.0,12.1,.0,27.0C.0,41.9,12.1,54.0,27.0,54.0z" fill-rule="nonzero"/><text xml:space="preserve" style="fill:#454545;font-family:Arial,PingFang SC,Mircrosoft YaHei,Arial;font-size:12.00pt"><tspan y="33.5" x="30.9">update item stocks</tspan></text></g><g id="shape11" transform="translate(487.468508,502.047244)"><path fill="#ffffff" stroke-width="1" stroke="#4155c6" d="M27.0,54.0L165.8,54.0L165.8,54.0C180.7,54.0,192.8,41.9,192.8,27.0C192.8,12.1,180.7,.0,165.8,.0L27.0,.0L27.0,.0C12.1,.0,.0,12.1,.0,27.0C.0,41.9,12.1,54.0,27.0,54.0z" fill-rule="nonzero"/><text xml:space="preserve" style="fill:#454545;font-family:Arial,PingFang SC,Mircrosoft YaHei,Arial;font-size:12.00pt"><tspan y="33.5" x="19.4">view item informations</tspan></text></g><g id="shape12" transform="translate(487.468508,723.149606)"><path fill="#ffffff" stroke-width="1" stroke="#4155c6" d="M27.0,54.0L165.8,54.0L165.8,54.0C180.7,54.0,192.8,41.9,192.8,27.0C192.8,12.1,180.7,.0,165.8,.0L27.0,.0L27.0,.0C12.1,.0,.0,12.1,.0,27.0C.0,41.9,12.1,54.0,27.0,54.0z" fill-rule="nonzero"/><text xml:space="preserve" style="fill:#454545;font-family:Arial,PingFang SC,Mircrosoft YaHei,Arial;font-size:12.00pt"><tspan y="24.0" x="53.9">change item </tspan><tspan y="43.0" x="53.9">informations</tspan></text></g><g id="shape13" transform="translate(487.468508,277.779528)"><path fill="#ffffff" stroke-width="1" stroke="#4155c6" d="M27.0,54.0L165.8,54.0L165.8,54.0C180.7,54.0,192.8,41.9,192.8,27.0C192.8,12.1,180.7,.0,165.8,.0L27.0,.0L27.0,.0C12.1,.0,.0,12.1,.0,27.0C.0,41.9,12.1,54.0,27.0,54.0z" fill-rule="nonzero"/><text xml:space="preserve" style="fill:#454545;font-family:Arial,PingFang SC,Mircrosoft YaHei,Arial;font-size:12.00pt"><tspan y="33.5" x="34.9">manage accounts</tspan></text></g><g id="shape14" transform="translate(487.468508,353.062992)"><path fill="#ffffff" stroke-width="1" stroke="#4155c6" d="M27.0,54.0L165.8,54.0L165.8,54.0C180.7,54.0,192.8,41.9,192.8,27.0C192.8,12.1,180.7,.0,165.8,.0L27.0,.0L27.0,.0C12.1,.0,.0,12.1,.0,27.0C.0,41.9,12.1,54.0,27.0,54.0z" fill-rule="nonzero"/><text xml:space="preserve" style="fill:#454545;font-family:Arial,PingFang SC,Mircrosoft YaHei,Arial;font-size:12.00pt"><tspan y="33.5" x="38.9">view activity logs</tspan></text></g><g id="group15" transform="translate(954.332410,410.322835)"><path id="shape16" fill="#ffffff" stroke-width="1" stroke="#000000" d="M.1,14.2C.1,6.4,6.6,.0,14.7,.0C22.8,.0,29.4,6.4,29.4,14.2C29.4,22.1,22.8,28.4,14.7,28.4C6.6,28.4,.1,22.1,.1,14.2z" transform="translate(14.562200,-0.924500)" fill-rule="nonzero"/><path id="shape17" fill="none" stroke-width="1" stroke="#000000" d="M.1,.0L60.6,.0" transform="translate(0.000000,41.674941)"/><path id="shape18" fill="none" stroke-width="1" stroke="#000000" d="M27.3,-0.9L27.3,73.9L.1,128.8" transform="translate(1.950700,28.414700)"/><path id="shape19" fill="none" stroke-width="1" stroke="#000000" d="M.5,.0C-3.5,.0,27.8,54.9,27.8,54.9" transform="translate(30.845400,102.293400)"/></g><g id="shape20" transform="translate(117.074901,488.937008)"><path fill="none" stroke-width="1" stroke="#303030" d="M.0,.0L365.9,-317.1"/><path stroke-linecap="round" fill="#303030" stroke-width="1" stroke="#303030" d="M363.9,-319.4L370.4,-321.0L367.8,-314.8L363.9,-319.4"/></g><g id="shape21" transform="translate(117.074901,488.937008)"><path fill="none" stroke-width="1" stroke="#303030" d="M.0,.0L365.4,-250.8"/><path stroke-linecap="round" fill="#303030" stroke-width="1" stroke="#303030" d="M363.7,-253.3L370.4,-254.2L367.1,-248.3L363.7,-253.3"/></g><g id="shape22" transform="translate(117.074901,488.937008)"><path fill="none" stroke-width="1" stroke="#303030" d="M.0,.0L364.4,-33.0"/><path stroke-linecap="round" fill="#303030" stroke-width="1" stroke="#303030" d="M364.1,-36.0L370.4,-33.6L364.7,-30.1L364.1,-36.0"/></g><g id="shape23" transform="translate(117.074901,488.937008)"><path fill="none" stroke-width="1" stroke="#303030" d="M.0,.0L364.7,112.0"/><path stroke-linecap="round" fill="#303030" stroke-width="1" stroke="#303030" d="M365.5,109.2L370.4,113.8L363.8,114.9L365.5,109.2"/></g><g id="shape24" transform="translate(117.074901,488.937008)"><path fill="none" stroke-width="1" stroke="#303030" d="M.0,.0L364.4,39.5"/><path stroke-linecap="round" fill="#303030" stroke-width="1" stroke="#303030" d="M364.8,36.5L370.4,40.1L364.1,42.4L364.8,36.5"/></g><g id="shape25" transform="translate(954.332410,488.937035)"><path fill="none" stroke-width="1" stroke="#303030" d="M.0,.0L-270.2,-316.5"/><path stroke-linecap="round" fill="#303030" stroke-width="1" stroke="#303030" d="M-272.5,-314.5L-274.1,-321.0L-267.9,-318.4L-272.5,-314.5"/></g><g id="shape26" transform="translate(954.332410,488.937035)"><path fill="none" stroke-width="1" stroke="#303030" d="M.0,.0L-269.7,-250.1"/><path stroke-linecap="round" fill="#303030" stroke-width="1" stroke="#303030" d="M-271.7,-247.9L-274.1,-254.2L-267.7,-252.3L-271.7,-247.9"/></g><g id="shape27" transform="translate(950.182415,486.100967)"><path fill="none" stroke-width="1" stroke="#303030" d="M.0,.0L-265.0,-178.0"/><path stroke-linecap="round" fill="#303030" stroke-width="1" stroke="#303030" d="M-266.6,-175.5L-270.0,-181.3L-263.3,-180.5L-266.6,-175.5"/></g><g id="shape28" transform="translate(954.332410,488.937035)"><path fill="none" stroke-width="1" stroke="#303030" d="M.0,.0L-268.5,-106.7"/><path stroke-linecap="round" fill="#303030" stroke-width="1" stroke="#303030" d="M-269.6,-103.9L-274.1,-108.9L-267.4,-109.4L-269.6,-103.9"/></g><g id="shape29" transform="translate(954.332410,488.937035)"><path fill="none" stroke-width="1" stroke="#303030" d="M.0,.0L-268.2,-32.9"/><path stroke-linecap="round" fill="#303030" stroke-width="1" stroke="#303030" d="M-268.5,-29.9L-274.1,-33.6L-267.8,-35.8L-268.5,-29.9"/></g><g id="shape30" transform="translate(954.332410,488.937035)"><path fill="none" stroke-width="1" stroke="#303030" d="M.0,.0L-268.2,39.2"/><path stroke-linecap="round" fill="#303030" stroke-width="1" stroke="#303030" d="M-267.7,42.2L-274.1,40.1L-268.6,36.3L-267.7,42.2"/></g><g id="shape31" transform="translate(954.332410,488.937035)"><path fill="none" stroke-width="1" stroke="#303030" d="M.0,.0L-269.2,184.1"/><path stroke-linecap="round" fill="#303030" stroke-width="1" stroke="#303030" d="M-267.5,186.6L-274.1,187.5L-270.8,181.6L-267.5,186.6"/></g><g id="shape32" transform="translate(954.332410,488.937035)"><path fill="none" stroke-width="1" stroke="#303030" d="M.0,.0L-269.8,257.1"/><path stroke-linecap="round" fill="#303030" stroke-width="1" stroke="#303030" d="M-267.7,259.2L-274.1,261.2L-271.8,254.9L-267.7,259.2"/></g><text paint-order="stroke" id="shape33" fill="#89a3fe" stroke-width="1" dominant-baseline="hanging" text-anchor="start" stroke="#454545" transform="translate(38.416806,349.897638)"><tspan style="font-family:Arial,PingFang SC,Mircrosoft YaHei,Arial;font-size:36.00pt">Staff</tspan></text><text paint-order="stroke" id="shape34" fill="#89a3fe" stroke-width="1" dominant-baseline="hanging" text-anchor="start" stroke="#454545" transform="matrix(1.000001,0.000000,0.000000,1.000001,918.338107,359.436676)"><tspan style="font-family:Arial,PingFang SC,Mircrosoft YaHei,Arial;font-size:36.00pt">Admin</tspan></text><text paint-order="stroke" id="shape35" fill="#89a3fe" stroke-width="1" dominant-baseline="hanging" text-anchor="start" stroke="#454545" transform="matrix(1.000000,0.000000,0.000000,1.000001,46.970515,39.067451)"><tspan style="font-family:Arial,PingFang SC,Mircrosoft YaHei,Arial;font-size:36.00pt">Queen'z Inventory System - Use Case Diagram</tspan></text><g id="shape36" transform="translate(487.468508,796.850394)"><path fill="#ffffff" stroke-width="1" stroke="#4155c6" d="M27.0,54.0L165.8,54.0L165.8,54.0C180.7,54.0,192.8,41.9,192.8,27.0C192.8,12.1,180.7,.0,165.8,.0L27.0,.0L27.0,.0C12.1,.0,.0,12.1,.0,27.0C.0,41.9,12.1,54.0,27.0,54.0z" fill-rule="nonzero"/><text xml:space="preserve" style="fill:#454545;font-family:Arial,PingFang SC,Mircrosoft YaHei,Arial;font-size:12.00pt"><tspan y="33.5" x="45.9">add new items</tspan></text></g><g id="shape37" transform="translate(487.468413,870.551181)"><path fill="#ffffff" stroke-width="1" stroke="#4155c6" d="M27.0,54.0L165.8,54.0L165.8,54.0C180.7,54.0,192.8,41.9,192.8,27.0C192.8,12.1,180.7,.0,165.8,.0L27.0,.0L27.0,.0C12.1,.0,.0,12.1,.0,27.0C.0,41.9,12.1,54.0,27.0,54.0z" fill-rule="nonzero"/><text xml:space="preserve" style="fill:#454545;font-family:Arial,PingFang SC,Mircrosoft YaHei,Arial;font-size:12.00pt"><tspan y="33.5" x="28.9">update items status</tspan></text></g><g id="shape38" transform="translate(954.332410,488.937035)"><path fill="none" stroke-width="1" stroke="#303030" d="M.0,.0L-270.3,330.3"/><path stroke-linecap="round" fill="#303030" stroke-width="1" stroke="#303030" d="M-268.0,332.2L-274.1,334.9L-272.6,328.4L-268.0,332.2"/></g><g id="shape39" transform="translate(954.332410,488.937035)"><path fill="none" stroke-width="1" stroke="#303030" d="M.0,.0L-270.8,403.6"/><path stroke-linecap="round" fill="#303030" stroke-width="1" stroke="#303030" d="M-268.3,405.3L-274.1,408.6L-273.3,402.0L-268.3,405.3"/></g></g></svg>